/* XPM */
static char * hero1_32back_xpm[] = {
"32 32 5 1",
" 	c #FFA200",
".	c #C37100",
"+	c #000000",
"@	c #B21030",
"#	c #DB4161",
"                                ",
"                                ",
"              ..++              ",
"              ..++              ",
"          ++@@@@@@@@++          ",
"          ++@@@@@@@@++          ",
"        ++@@########@@++        ",
"        ++@@########@@++        ",
"      ++@@++++++++++++@@++      ",
"      ++@@++++++++++++@@++      ",
"      ++++############++++      ",
"      ++++############++++      ",
"      ++##++##++++##++##++      ",
"      ++##++##++++##++##++      ",
"      ++@@++@@++++@@++@@++      ",
"      ++@@++@@++++@@++@@++      ",
"      ++@@++  ++++  ++@@++      ",
"      ++@@++  ++++  ++@@++      ",
"      ++++++  ++++  ++++++      ",
"      ++++++  ++++  ++++++      ",
"    ++..@@@@++++++++@@++..++    ",
"    ++..@@@@++++++++@@++..++    ",
"  ++..  ++@@@@####@@@@++  ..++  ",
"  ++..  ++@@@@####@@@@++  ..++  ",
"  ++....++++@@@@@@@@++++....++  ",
"  ++....++++@@@@@@@@++++....++  ",
"    ++++++++++++++++++++++++    ",
"    ++++++++++++++++++++++++    ",
"        ++@@##    ##@@++        ",
"        ++@@##    ##@@++        ",
"                                ",
"                                "};
