/* XPM */
static char * hero1_32_xpm[] = {
"32 32 6 1",
" 	c None",
".	c #FFA200",
"+	c #C37100",
"@	c #000000",
"#	c #B21030",
"$	c #DB4161",
"              ....              ",
"              ....              ",
"              ++@@              ",
"              ++@@              ",
"          @@########@@          ",
"          @@########@@          ",
"        @@##$$$$$$$$##@@        ",
"        @@##$$$$$$$$##@@        ",
"      @@##@@@@@@@@@@@@##@@      ",
"      @@##@@@@@@@@@@@@##@@      ",
"      @@@@$$$$$$$$$$$$@@@@      ",
"      @@@@$$$$$$$$$$$$@@@@      ",
"      @@$$@@$$@@@@$$@@$$@@      ",
"      @@$$@@$$@@@@$$@@$$@@      ",
"      @@##@@##@@@@##@@##@@      ",
"      @@##@@##@@@@##@@##@@      ",
"      @@##@@..@@@@..@@##@@      ",
"      @@##@@..@@@@..@@##@@      ",
"      @@@@@@..@@@@..@@@@@@      ",
"      @@@@@@..@@@@..@@@@@@      ",
"    @@++####@@@@@@@@##@@++@@    ",
"    @@++####@@@@@@@@##@@++@@    ",
"  @@++..@@####$$$$####@@..++@@  ",
"  @@++..@@####$$$$####@@..++@@  ",
"  @@++++@@@@########@@@@++++@@  ",
"  @@++++@@@@########@@@@++++@@  ",
"    @@@@@@@@@@@@@@@@@@@@@@@@    ",
"    @@@@@@@@@@@@@@@@@@@@@@@@    ",
"        @@##$$    $$##@@        ",
"        @@##$$    $$##@@        ",
"                                ",
"                                "};
