/* XPM */
static char * exit32_xpm[] = {
"32 32 4 1",
" 	c #FFA200",
".	c #C37100",
"+	c #794100",
"@	c #000000",
"              ......      ....  ",
"              ......      ....  ",
"            ......      ..      ",
"            ......      ..      ",
"        ......        ..        ",
"        ......        ..        ",
"  ........      ..  ..  ......  ",
"  ........      ..  ..  ......  ",
"....    ++++++++++++++++    ....",
"....    ++++++++++++++++    ....",
"  ....@@@@@@++@@++++@@@@@@++....",
"  ....@@@@@@++@@++++@@@@@@++....",
"    ++@@  @@@@@@@@@@@@  @@++++  ",
"    ++@@  @@@@@@@@@@@@  @@++++  ",
"  ++@@@@  ++..    ..++  @@@@++  ",
"  ++@@@@  ++..    ..++  @@@@++  ",
"..++@@@@  @@@@@@@@@@@@  @@@@++..",
"..++@@@@  @@@@@@@@@@@@  @@@@++..",
"  ..@@@@..@@@@@@@@@@@@..@@@@..  ",
"  ..@@@@..@@@@@@@@@@@@..@@@@..  ",
"    @@@@..++..  ....++..@@@@    ",
"    @@@@..++..  ....++..@@@@    ",
"......@@++@@@@@@@@@@@@++@@  ....",
"......@@++@@@@@@@@@@@@++@@  ....",
"      ..@@@@@@@@@@@@@@@@....    ",
"      ..@@@@@@@@@@@@@@@@....    ",
"  ......  ..@@..      ....      ",
"  ......  ..@@..      ....      ",
"....        ..      ..          ",
"....        ..      ..          ",
"..                ..          ..",
"..                ..          .."};
