/* XPM */
static char * exit_xpm[] = {
"16 16 4 1",
" 	c #FFA200",
".	c #C37100",
"+	c #794100",
"@	c #000000",
"       ...   .. ",
"      ...   .   ",
"    ...    .    ",
" ....   . . ... ",
"..  ++++++++  ..",
" ..@@@+@++@@@+..",
"  +@ @@@@@@ @++ ",
" +@@ +.  .+ @@+ ",
".+@@ @@@@@@ @@+.",
" .@@.@@@@@@.@@. ",
"  @@.+. ..+.@@  ",
"...@+@@@@@@+@ ..",
"   .@@@@@@@@..  ",
" ... .@.   ..   ",
"..    .   .     ",
".        .     ."};
