/* XPM */
static char * tileset_world_xpm[] = {
"16 16 5 1",
" 	c #C37100",
".	c #794100",
"+	c #FFA200",
"@	c #000000",
"#	c #FFDBA2",
" ....    ..     ",
"+++++@@@@@@++++ ",
"+++@@#####+@@+++",
"++@+#@@@@..#+@+ ",
"  @+#@@....#+@  ",
"+++@+++####+@ ++",
"++@ @@    .@@@++",
"+@ +##.... ..@@+",
" @+####+    ..@ ",
"+@++####+    .@+",
"+@ +#####+  ..@+",
"+@@ +####+ ...@+",
"  @@ +#++ ...@  ",
"+++@@@  ...@@ ++",
"+++ +@@@@@@+++++",
"++++++++++  . ++"};
