/* XPM */
static char * collectible_xpm[] = {
"16 16 3 1",
" 	c #FFDBA2",
".	c #FFA200",
"+	c #794100",
"       ...   .. ",
"     ....   .   ",
"   ..++++++...  ",
" ..++     .++.. ",
"..+     .... +..",
" + ..+++++.  .+.",
"+ ..+    ++   .+",
"+ .+   ...+.  .+",
"+..+ +++..+.  .+",
"+..+.+ +..+.. .+",
"+..+...+.++...++",
".+..+++..++.+.++",
".++....+++.+.++.",
" .++++++++++++. ",
"...+++++++++..  ",
".   .........  ."};
