/* XPM */
static char * collectible32_xpm[] = {
"32 32 3 1",
" 	c #FFDBA2",
".	c #FFA200",
"+	c #794100",
"              ......      ....  ",
"              ......      ....  ",
"          ........      ..      ",
"          ........      ..      ",
"      ....++++++++++++......    ",
"      ....++++++++++++......    ",
"  ....++++          ..++++....  ",
"  ....++++          ..++++....  ",
"....++          ........  ++....",
"....++          ........  ++....",
"  ++  ....++++++++++..    ..++..",
"  ++  ....++++++++++..    ..++..",
"++  ....++        ++++      ..++",
"++  ....++        ++++      ..++",
"++  ..++      ......++..    ..++",
"++  ..++      ......++..    ..++",
"++....++  ++++++....++..    ..++",
"++....++  ++++++....++..    ..++",
"++....++..++  ++....++....  ..++",
"++....++..++  ++....++....  ..++",
"++....++......++..++++......++++",
"++....++......++..++++......++++",
"..++....++++++....++++..++..++++",
"..++....++++++....++++..++..++++",
"..++++........++++++..++..++++..",
"..++++........++++++..++..++++..",
"  ..++++++++++++++++++++++++..  ",
"  ..++++++++++++++++++++++++..  ",
"......++++++++++++++++++....    ",
"......++++++++++++++++++....    ",
"..      ..................    ..",
"..      ..................    .."};
