/* XPM */
static char * empty32_xpm[] = {
"32 32 4 1",
" 	c #FFA200",
".	c #C37100",
"+	c #FFDBA2",
"@	c #794100",
"              ......      ....  ",
"              ......      ....  ",
"            ..............      ",
"            ..............      ",
"            ..++++  @@..        ",
"            ..++++  @@..        ",
"          ..  ++    @@........  ",
"          ..  ++    @@........  ",
"..    ......@@@@@@@@@@@@........",
"..    ......@@@@@@@@@@@@........",
"......++++  ..............      ",
"......++++  ..............      ",
"....  ++    ......              ",
"....  ++    ......              ",
"  ..@@@@@@@@..                  ",
"  ..@@@@@@@@..                  ",
"  ................              ",
"  ................              ",
"        ....++++@@..            ",
"        ....++++@@..            ",
"    ......  ++  @@@@..          ",
"    ......  ++  @@@@..          ",
"....    ..@@@@@@@@@@......  ....",
"....    ..@@@@@@@@@@......  ....",
"      ..............      ..    ",
"      ..............      ..    ",
"  ......              ....      ",
"  ......              ....      ",
"....                ..          ",
"....                ..          ",
"..                ..          ..",
"..                ..          .."};
