/* XPM */
static char * empty_xpm[] = {
"16 16 4 1",
" 	c #FFA200",
".	c #C37100",
"+	c #FFDBA2",
"@	c #794100",
"       ...   .. ",
"      .......   ",
"      .++ @.    ",
"     . +  @.... ",
".  ...@@@@@@....",
"...++ .......   ",
".. +  ...       ",
" .@@@@.         ",
" ........       ",
"    ..++@.      ",
"  ... + @@.     ",
"..  .@@@@@... ..",
"   .......   .  ",
" ...       ..   ",
"..        .     ",
".        .     ."};
