/* XPM */
static char * wall32_xpm[] = {
"32 32 5 1",
" 	c #C37100",
".	c #794100",
"+	c #FFA200",
"@	c #000000",
"#	c #FFDBA2",
"  ........        ....          ",
"  ........        ....          ",
"++++++++++@@@@@@@@@@@@++++++++  ",
"++++++++++@@@@@@@@@@@@++++++++  ",
"++++++@@@@##########++@@@@++++++",
"++++++@@@@##########++@@@@++++++",
"++++@@++##@@@@@@@@....##++@@++  ",
"++++@@++##@@@@@@@@....##++@@++  ",
"    @@++##@@@@........##++@@    ",
"    @@++##@@@@........##++@@    ",
"++++++@@++++++########++@@  ++++",
"++++++@@++++++########++@@  ++++",
"++++@@  @@@@        ..@@@@@@++++",
"++++@@  @@@@        ..@@@@@@++++",
"++@@  ++####........  ....@@@@++",
"++@@  ++####........  ....@@@@++",
"  @@++########++        ....@@  ",
"  @@++########++        ....@@  ",
"++@@++++########++        ..@@++",
"++@@++++########++        ..@@++",
"++@@  ++##########++    ....@@++",
"++@@  ++##########++    ....@@++",
"++@@@@  ++########++  ......@@++",
"++@@@@  ++########++  ......@@++",
"    @@@@  ++##++++  ......@@    ",
"    @@@@  ++##++++  ......@@    ",
"++++++@@@@@@    ......@@@@  ++++",
"++++++@@@@@@    ......@@@@  ++++",
"++++++  ++@@@@@@@@@@@@++++++++++",
"++++++  ++@@@@@@@@@@@@++++++++++",
"++++++++++++++++++++    ..  ++++",
"++++++++++++++++++++    ..  ++++"};
